{"title":"Der.ultimative.Blowjob.Wie.Sie.Ihn.in.Ekstase.blasen.2010.DOKU.B","uid":7385461,"size":4035993262,"categoryP":"video","categoryS":"other","magnet":"?xt=urn:btih:0a3f3ce638c59c157d8469b35d60a621c43bb673&amp;dn=Der.ultimative.Blowjob.Wie.Sie.Ihn.in.Ekstase.blasen.2010.DOKU.B&amp;tr=udp%3A%2F%2Ftracker.openbittorrent.com%3A80&amp;tr=udp%3A%2F%2Fopen.demonii.com%3A1337&amp;tr=udp%3A%2F%2Ftracker.coppersurfer.tk%3A6969&amp;tr=udp%3A%2F%2Fexodus.desync.com%3A6969","seeders":0,"leechers":1,"uploader":null,"files":1,"time":1340624165,"description":"screens\n &lt;a href=&quot;\nhttp://i.imgur.com/k0odH.jpg&quot; rel=&quot;nofollow&quot; target=&quot;_NEW&quot;&gt;\nhttp://i.imgur.com/k0odH.jpg&lt;/a&gt;\n &lt;a href=&quot;\nhttp://i.imgur.com/ZTVXm.jpg&quot; rel=&quot;nofollow&quot; target=&quot;_NEW&quot;&gt;\nhttp://i.imgur.com/ZTVXm.jpg&lt;/a&gt;\n &lt;a href=&quot;\nhttp://i.imgur.com/RRa47.jpg&quot; rel=&quot;nofollow&quot; target=&quot;_NEW&quot;&gt;\nhttp://i.imgur.com/RRa47.jpg&lt;/a&gt;\n &lt;a href=&quot;\nhttp://i.imgur.com/4Vjee.jpg&quot; rel=&quot;nofollow&quot; target=&quot;_NEW&quot;&gt;\nhttp://i.imgur.com/4Vjee.jpg&lt;/a&gt;\n &lt;a href=&quot;\nhttp://i.imgur.com/MUCjd.jpg&quot; rel=&quot;nofollow&quot; target=&quot;_NEW&quot;&gt;\nhttp://i.imgur.com/MUCjd.jpg&lt;/a&gt;\n &lt;a href=&quot;\nhttp://i.imgur.com/MU2po.jpg&quot; rel=&quot;nofollow&quot; target=&quot;_NEW&quot;&gt;\nhttp://i.imgur.com/MU2po.jpg&lt;/a&gt;\n\n\n\n\n\nFormat                                   : AVI\nFormat/Info                              : Audio Video Interleave\nFormat profile                           : OpenDML\nFile size                                : 3.76 GiB\nDuration                                 : 44mn 12s\nOverall bit rate                         : 12.2 Mbps\nWriting application                      : Lavf52.39.0\n\nVideo\nID                                       : 0\nFormat                                   : MPEG-4 Visual\nCodec ID                                 : DIV3\nCodec ID/Hint                            : DivX 3 Low\nDuration                                 : 44mn 11s\nBit rate                                 : 12.0 Mbps\nWidth                                    : 1 920 pixels\nHeight                                   : 1 080 pixels\nDisplay aspect ratio                     : 16:9\nFrame rate                               : 29.970 fps\nColor space                              : YUV\nChroma subsampling                       : 4:2:0\nBit depth                                : 8 bits\nCompression mode                         : Lossy\nBits/(Pixel*Frame)                       : 0.193\nStream size                              : 3.70 GiB (98%)\n\nAudio\nID                                       : 1\nFormat                                   : MPEG Audio\nFormat version                           : Version 1\nFormat profile                           : Layer 3\nMode                                     : Joint stereo\nMode extension                           : MS Stereo\nCodec ID                                 : 55\nCodec ID/Hint                            : MP3\nDuration                                 : 44mn 12s\nBit rate mode                            : Constant\nBit rate                                 : 192 Kbps\nChannel(s)                               : 2 channels\nSampling rate                            : 44.1 KHz\nCompression mode                         : Lossy\nStream size                              : 60.7 MiB (2%)\nAlignment                                : Aligned on interleaves\nInterleave, duration                     : 26 ms (0.78 video frame)\nInterleave, preload duration             : 52 ms\nWriting library                          : LAME3.98.2","torrent":{"xt":"urn:btih:0a3f3ce638c59c157d8469b35d60a621c43bb673","amp;dn":"Der.ultimative.Blowjob.Wie.Sie.Ihn.in.Ekstase.blasen.2010.DOKU.B","amp;tr":["udp%3A%2F%2Ftracker.openbittorrent.com%3A80","udp%3A%2F%2Fopen.demonii.com%3A1337","udp%3A%2F%2Ftracker.coppersurfer.tk%3A6969","udp%3A%2F%2Fexodus.desync.com%3A6969"],"infoHash":"0a3f3ce638c59c157d8469b35d60a621c43bb673","infoHashBuffer":{"type":"Buffer","data":[10,63,60,230,56,197,156,21,125,132,105,179,93,96,166,33,196,59,182,115]},"announce":[],"urlList":[]}}